# File created by Blade
# Date/Time:  Fri Jan 16 19:49:56 2015
# Frame Rate: 120.000 fps
#------------------------------------------------------
:FULLY-SPECIFIED
:DEGREES
921
root 19.258928 35.339594 -21.331442 -171.482191 -2.101722 -179.833967
Spine -21.603414 -1.007640 0.278203
Head 11.104558 -1.215311 0.582764
LeftShoulder -11.423513 -39.392870 20.804927
LeftArm 7.922519 9.457622 -4.264153
LeftForeArm 21.480575 -0.000000 -1.096549
LeftHand -7.350689 -0.000000 -5.028163
LeftHandThumb1 -26.253704 0.000000 33.147579
RightShoulder -11.187330 1.702842 -12.352647
RightArm 9.907080 32.661037 5.210773
RightForeArm -41.741966 -0.000000 5.016934
RightHand -4.975263 -0.000000 13.153250
RightHandThumb1 -24.326973 -0.000000 -32.862282
LeftUpLeg 0.307969 5.813529 3.136626
LeftLeg -6.646493 -0.000000 0.000000
LeftFoot -20.116084 25.455677 -13.281885
LeftToeBase 27.533697 -0.000000 -0.000000
RightUpLeg 0.084669 -8.206433 -4.187177
RightLeg -3.324276 -0.000000 0.000000
RightFoot -21.208847 -19.631024 17.641604
RightToeBase 25.296246 -0.000000 -0.000000
922
root 19.255335 35.339171 -21.332137 -171.468114 -2.123013 -179.842288
Spine -21.606108 -1.028064 0.276613
Head 11.091912 -1.218620 0.559179
LeftShoulder -11.414118 -39.440006 20.802042
LeftArm 7.888763 9.501767 -4.285488
LeftForeArm 21.442199 -0.000000 -1.087078
LeftHand -7.318576 -0.000000 -5.063170
LeftHandThumb1 -26.253704 0.000000 33.147579
RightShoulder -11.207083 1.711245 -12.344985
RightArm 9.912160 32.738649 5.246095
RightForeArm -41.762028 -0.000000 5.037824
RightHand -4.973601 -0.000000 13.162363
RightHandThumb1 -24.326973 -0.000000 -32.862282
LeftUpLeg 0.295517 5.806267 3.126560
LeftLeg -6.649914 -0.000000 0.000000
LeftFoot -20.094851 25.433649 -13.239336
LeftToeBase 27.531975 -0.000000 -0.000000
RightUpLeg 0.072361 -8.268824 -4.195214
RightLeg -3.313102 -0.000000 0.000000
RightFoot -21.236140 -19.646520 17.529109
RightToeBase 25.473858 -0.000000 -0.000000
923
root 19.253467 35.339384 -21.332651 -171.454492 -2.141556 -179.835165
Spine -21.606882 -1.056702 0.296525
Head 11.061749 -1.217334 0.535538
LeftShoulder -11.412321 -39.477221 20.798255
LeftArm 7.852242 9.543899 -4.299425
LeftForeArm 21.407020 0.000000 -1.089337
LeftHand -7.309147 -0.000000 -5.054162
LeftHandThumb1 -26.253704 0.000000 33.147579
RightShoulder -11.208058 1.726155 -12.328897
RightArm 9.895410 32.906425 5.290855
RightForeArm -41.884287 0.000000 5.109066
RightHand -4.966525 -0.000000 13.219432
RightHandThumb1 -24.326973 -0.000000 -32.862282
LeftUpLeg 0.281325 5.811901 3.128991
LeftLeg -6.655658 -0.000000 0.000000
LeftFoot -20.099209 25.415007 -13.272203
LeftToeBase 27.519213 -0.000000 -0.000000
RightUpLeg 0.094772 -8.227099 -4.187888
RightLeg -3.375187 -0.000000 0.000000
RightFoot -21.217558 -19.713651 17.556963
RightToeBase 25.498324 -0.000000 -0.000000
924
root 19.250323 35.339559 -21.333507 -171.428026 -2.170941 -179.834982
Spine -21.628038 -1.098045 0.312318
Head 11.054264 -1.192725 0.520269
LeftShoulder -11.427174 -39.479227 20.799596
LeftArm 7.844629 9.520988 -4.321911
LeftForeArm 21.433613 -0.000000 -1.108486
LeftHand -7.307281 -0.000000 -5.065173
LeftHandThumb1 -26.253704 0.000000 33.147579
RightShoulder -11.223446 1.708842 -12.307970
RightArm 10.009873 33.334072 5.416234
RightForeArm -42.250585 -0.000000 5.021952
RightHand -4.933590 0.000000 13.126836
RightHandThumb1 -24.326973 -0.000000 -32.862282
LeftUpLeg 0.252686 5.802627 3.126353
LeftLeg -6.659332 -0.000000 0.000000
LeftFoot -20.098319 25.395551 -13.264411
LeftToeBase 27.580448 -0.000000 -0.000000
RightUpLeg 0.073517 -8.302702 -4.183604
RightLeg -3.377005 -0.000000 0.000000
RightFoot -21.188623 -19.630738 17.666479
RightToeBase 25.285387 -0.000000 -0.000000
925
root 19.247351 35.339550 -21.334224 -171.406759 -2.185577 -179.843507
Spine -21.640629 -1.118473 0.308929
Head 11.037184 -1.191908 0.506262
LeftShoulder -11.418172 -39.477588 20.797516
LeftArm 7.821440 9.481792 -4.348409
LeftForeArm 21.437938 -0.000000 -1.125082
LeftHand -7.327200 0.000000 -5.082426
LeftHandThumb1 -26.253704 0.000000 33.147579
RightShoulder -11.246483 1.687866 -12.286990
RightArm 10.049715 33.429413 5.456198
RightForeArm -42.270810 -0.000000 5.003311
RightHand -4.946562 -0.000000 13.103285
RightHandThumb1 -24.326973 -0.000000 -32.862282
LeftUpLeg 0.233858 5.804837 3.113892
LeftLeg -6.664472 -0.000000 0.000000
LeftFoot -20.089976 25.362291 -13.281907
LeftToeBase 27.523050 -0.000000 -0.000000
RightUpLeg 0.052032 -8.356620 -4.187585
RightLeg -3.368545 -0.000000 0.000000
RightFoot -21.211815 -19.660455 17.564254
RightToeBase 25.502430 -0.000000 -0.000000
926
root 19.243727 35.339534 -21.334753 -171.388015 -2.208819 -179.851489
Spine -21.643325 -1.149581 0.309982
Head 11.004500 -1.192682 0.496529
LeftShoulder -11.423117 -39.471371 20.803328
LeftArm 7.807611 9.421756 -4.382652
LeftForeArm 21.462816 -0.000000 -1.152175
LeftHand -7.331641 -0.000000 -5.131003
LeftHandThumb1 -26.253704 0.000000 33.147579
RightShoulder -11.267107 1.676397 -12.249812
RightArm 10.088779 33.439400 5.442170
RightForeArm -42.164120 -0.000000 4.970763
RightHand -4.924026 -0.000000 13.130612
RightHandThumb1 -24.326973 -0.000000 -32.862282
LeftUpLeg 0.215727 5.801672 3.102238
LeftLeg -6.671574 -0.000000 0.000000
LeftFoot -20.082055 25.339515 -13.282611
LeftToeBase 27.537716 -0.000000 -0.000000
RightUpLeg 0.036996 -8.408562 -4.195225
RightLeg -3.364245 -0.000000 0.000000
RightFoot -21.208860 -19.623988 17.577832
RightToeBase 25.509570 -0.000000 -0.000000
927
root 19.240220 35.339329 -21.334967 -171.357650 -2.228618 -179.866227
Spine -21.663702 -1.182915 0.297936
Head 10.983470 -1.196091 0.480270
LeftShoulder -11.428240 -39.475668 20.833365
LeftArm 7.773435 9.405695 -4.433551
LeftForeArm 21.437039 0.000000 -1.143685
LeftHand -7.396724 -0.000000 -5.117253
LeftHandThumb1 -26.253704 0.000000 33.147579
RightShoulder -11.270774 1.699818 -12.229523
RightArm 10.079729 33.401503 5.431647
RightForeArm -42.120242 -0.000000 4.985070
RightHand -4.928819 -0.000000 13.173145
RightHandThumb1 -24.326973 -0.000000 -32.862282
LeftUpLeg 0.183668 5.811474 3.082054
LeftLeg -6.671673 -0.000000 0.000000
LeftFoot -20.071521 25.303746 -13.268923
LeftToeBase 27.559070 -0.000000 -0.000000
RightUpLeg -0.000248 -8.470660 -4.205104
RightLeg -3.342765 -0.000000 0.000000
RightFoot -21.214195 -19.614059 17.538020
RightToeBase 25.517237 -0.000000 -0.000000
